HIERARCHY
ROOT joint_Root
{
	OFFSET 0.0 0.0 0.0
	CHANNELS 6 Xposition Yposition Zposition Zrotation Xrotation Yrotation 
	JOINT Hips
	{
		OFFSET 4.5925 91.4895 -427.239
		CHANNELS 6 Xposition Yposition Zposition Zrotation Xrotation Yrotation 
		JOINT Spine
		{
			OFFSET 15.7357 0.0 0.0
			CHANNELS 6 Xposition Yposition Zposition Zrotation Xrotation Yrotation 
			JOINT Chest
			{
				OFFSET 8.98455 -0.406207 0.0
				CHANNELS 6 Xposition Yposition Zposition Zrotation Xrotation Yrotation 
				JOINT Neck
				{
					OFFSET 16.3773 0.0 0.0
					CHANNELS 6 Xposition Yposition Zposition Zrotation Xrotation Yrotation 
					JOINT Head
					{
						OFFSET 6.45672 0.0 0.0
						CHANNELS 6 Xposition Yposition Zposition Zrotation Xrotation Yrotation 
						End Site
						{
							OFFSET 0.0 0.0 0.0
						}
					}
				}
				JOINT Shoulder_L
				{
					OFFSET 12.9942 -0.242716 4.98039
					CHANNELS 6 Xposition Yposition Zposition Zrotation Xrotation Yrotation 
					JOINT UpperArm_L
					{
						OFFSET 5.34809 0.0 0.0
						CHANNELS 6 Xposition Yposition Zposition Zrotation Xrotation Yrotation 
						JOINT LowerArm_L
						{
							OFFSET 24.3286 1.87007e-05 0.0
							CHANNELS 6 Xposition Yposition Zposition Zrotation Xrotation Yrotation 
							JOINT Hand_L
							{
								OFFSET 22.2916 0.0 0.0
								CHANNELS 6 Xposition Yposition Zposition Zrotation Xrotation Yrotation 
								End Site
								{
									OFFSET 0.0 0.0 0.0
								}
							}
						}
					}
				}
				JOINT Shoulder_R
				{
					OFFSET 12.9945 -0.242716 -4.98039
					CHANNELS 6 Xposition Yposition Zposition Zrotation Xrotation Yrotation 
					JOINT UpperArm_R
					{
						OFFSET -5.34813 0.0 0.0
						CHANNELS 6 Xposition Yposition Zposition Zrotation Xrotation Yrotation 
						JOINT LowerArm_R
						{
							OFFSET -24.3289 0.000322201 0.0
							CHANNELS 6 Xposition Yposition Zposition Zrotation Xrotation Yrotation 
							JOINT Hand_R
							{
								OFFSET -22.2915 -0.000108084 0.0
								CHANNELS 6 Xposition Yposition Zposition Zrotation Xrotation Yrotation 
								End Site
								{
									OFFSET 0.0 0.0 0.0
								}
							}
						}
					}
				}
			}
		}
		JOINT UpperLeg_L
		{
			OFFSET -2.19248 -6.46944 0.0
			CHANNELS 6 Xposition Yposition Zposition Zrotation Xrotation Yrotation 
			JOINT LowerLeg_L
			{
				OFFSET 39.0811 0.0 -1.23785e-05
				CHANNELS 6 Xposition Yposition Zposition Zrotation Xrotation Yrotation 
				JOINT Foot_L
				{
					OFFSET 40.9854 0.0 -1.26872e-05
					CHANNELS 6 Xposition Yposition Zposition Zrotation Xrotation Yrotation 
					JOINT Toes_L
					{
						OFFSET 11.7543 0.0 0.0
						CHANNELS 6 Xposition Yposition Zposition Zrotation Xrotation Yrotation 
						End Site
						{
							OFFSET 0.0 0.0 0.0
						}
					}
				}
			}
		}
		JOINT UpperLeg_R
		{
			OFFSET -2.19251 6.46944 0.0
			CHANNELS 6 Xposition Yposition Zposition Zrotation Xrotation Yrotation 
			JOINT LowerLeg_R
			{
				OFFSET -39.0811 -0.00228153 -0.0401928
				CHANNELS 6 Xposition Yposition Zposition Zrotation Xrotation Yrotation 
				JOINT Foot_R
				{
					OFFSET -40.9854 0.0 0.0
					CHANNELS 6 Xposition Yposition Zposition Zrotation Xrotation Yrotation 
					JOINT Toes_R
					{
						OFFSET -11.7543 0.0 0.0
						CHANNELS 6 Xposition Yposition Zposition Zrotation Xrotation Yrotation 
						End Site
						{
							OFFSET 0.0 0.0 0.0
						}
					}
				}
			}
		}
	}
}
MOTION
Frames:	4
Frame Time:	0.0333333
0.000000 0.000000 0.000000 0.000000 0.000000 -0.000000 -7.085650 90.405600 0.180874 84.502400 -5.383560 7.523680 15.735700 0.000005 -0.000001 83.841700 83.014000 -81.752500 8.984550 -0.406207 -0.000000 6.158300 -1.523940 4.255900 16.377300 -0.000001 -0.000001 1.623790 -0.713970 -0.913829 6.456720 -0.000001 -0.000000 -8.054220 0.343785 0.246978 12.994200 -0.242716 4.980390 -91.736300 6.886090 -75.811500 5.348090 -0.000007 -0.000001 -65.324200 33.552100 -12.400800 24.328600 0.000019 0.000005 12.212700 26.021300 -26.259900 22.291600 -0.000001 0.000005 5.921700 5.315440 -0.364596 12.994500 -0.242716 -4.980390 88.261800 12.096200 -81.760000 -5.348130 -0.000001 -0.000004 -62.005900 36.293700 -8.732860 -24.328900 0.000322 -0.000009 2.089890 5.754640 -20.007700 -22.291500 -0.000108 -0.000004 14.124100 5.428150 -3.876910 -2.192480 -6.469440 -0.000000 -165.286000 -12.163900 -1.844450 39.081100 -0.000007 -0.000012 -0.271625 0.420620 32.853800 40.985400 -0.000006 -0.000013 -3.832080 7.181930 -71.762200 11.754300 -0.000000 0.000003 -0.000109 -0.001103 -16.619800 -2.192510 6.469440 -0.000001 -177.132000 24.135700 -177.852000 -39.081100 -0.002282 -0.040193 -0.183146 0.363549 27.152200 -40.985400 0.000008 0.000006 8.209400 15.793700 -72.425100 -11.754300 -0.000006 -0.000006 -0.000807 -0.012626 -17.086700
0.000000 0.000000 0.000000 0.000000 0.000000 -0.000000 -7.099040 90.394700 0.187528 84.531500 -5.271300 7.592190 15.735700 0.000005 -0.000001 83.755400 82.978900 -81.634800 8.984550 -0.406207 -0.000000 6.226800 -1.551510 4.321030 16.377300 -0.000001 -0.000001 1.744850 -0.826521 -0.833167 6.456720 -0.000001 -0.000000 -7.991550 0.211908 0.416418 12.994200 -0.242716 4.980390 -91.737400 6.866090 -75.763200 5.348090 -0.000007 -0.000001 -65.041200 33.015500 -12.748200 24.328600 0.000019 0.000005 12.438600 25.653700 -26.997900 22.291600 -0.000001 0.000005 5.868820 5.325380 -0.651376 12.994500 -0.242716 -4.980390 88.246800 12.091600 -81.686700 -5.348130 -0.000001 -0.000004 -61.966000 36.257800 -8.784040 -24.328900 0.000322 -0.000009 2.099870 5.798950 -19.954800 -22.291500 -0.000108 -0.000004 14.184700 5.427910 -3.867300 -2.192480 -6.469440 -0.000000 -165.296000 -12.109000 -1.824220 39.081100 -0.000007 -0.000012 -0.273017 0.422203 32.889200 40.985400 -0.000006 -0.000013 -3.825090 7.232310 -71.769600 11.754300 -0.000000 0.000003 -0.000118 -0.001187 -16.622900 -2.192510 6.469440 -0.000001 -177.195000 24.192400 -177.803000 -39.081100 -0.002282 -0.040193 -0.186765 0.369578 27.216800 -40.985400 0.000008 0.000006 8.206320 15.742000 -72.470600 -11.754300 -0.000006 -0.000006 -0.000820 -0.012816 -17.094500
0.000000 0.000000 0.000000 0.000000 0.000000 -0.000000 -7.119160 90.402100 0.153841 84.553600 -5.122940 7.602120 15.735700 0.000005 -0.000001 83.586600 82.954900 -81.429300 8.984550 -0.406207 -0.000000 6.271640 -1.597460 4.397550 16.377300 -0.000001 -0.000001 1.856630 -0.962536 -0.742069 6.456720 -0.000001 -0.000000 -7.846470 0.007736 0.621829 12.994200 -0.242716 4.980390 -91.755400 6.908490 -75.705500 5.348090 -0.000007 -0.000001 -64.429500 32.334600 -13.355600 24.328600 0.000019 0.000005 12.832100 25.146700 -28.193000 22.291600 -0.000001 0.000005 5.672640 5.329970 -0.784710 12.994500 -0.242716 -4.980390 88.237900 12.065000 -81.626900 -5.348130 -0.000001 -0.000004 -61.927700 36.233900 -8.864840 -24.328900 0.000322 -0.000009 2.106040 5.816590 -19.953100 -22.291500 -0.000108 -0.000004 14.243000 5.427620 -3.857390 -2.192480 -6.469440 -0.000000 -165.323000 -12.012100 -1.872860 39.081100 -0.000007 -0.000012 -0.271237 0.419954 32.857900 40.985400 -0.000006 -0.000013 -3.819480 7.298070 -71.712400 11.754300 -0.000000 0.000003 -0.000111 -0.001125 -16.620600 -2.192510 6.469440 -0.000001 -177.190000 24.271500 -177.814000 -39.081100 -0.002282 -0.040193 -0.186932 0.370316 27.190800 -40.985400 0.000008 0.000006 8.206700 15.675700 -72.440600 -11.754300 -0.000006 -0.000006 -0.000777 -0.012188 -17.068900
0.000000 0.000000 0.000000 0.000000 0.000000 -0.000000 -7.129060 90.397600 0.138370 84.599500 -5.024270 7.692060 15.735700 0.000005 -0.000001 83.678900 82.925700 -81.501000 8.984550 -0.406207 -0.000000 6.332270 -1.580420 4.438700 16.377300 -0.000001 -0.000001 2.060010 -1.182600 -0.626108 6.456720 -0.000001 -0.000000 -7.648530 -0.266155 0.926933 12.994200 -0.242716 4.980390 -91.753900 6.867090 -75.635300 5.348090 -0.000007 -0.000001 -63.610600 31.537700 -14.266400 24.328600 0.000019 0.000005 13.406400 24.644400 -29.752500 22.291600 -0.000001 0.000005 5.549600 5.338590 -1.037790 12.994500 -0.242716 -4.980390 88.228300 12.039600 -81.565200 -5.348130 -0.000001 -0.000004 -61.929400 36.238500 -8.884420 -24.328900 0.000322 -0.000009 2.118720 5.848070 -19.964600 -22.291500 -0.000108 -0.000004 14.118100 5.428720 -3.895010 -2.192480 -6.469440 -0.000000 -165.368000 -11.893400 -1.831720 39.081100 -0.000007 -0.000012 -0.271480 0.420266 32.861900 40.985400 -0.000006 -0.000013 -3.826250 7.290890 -71.696600 11.754300 -0.000000 0.000003 -0.000117 -0.001173 -16.622400 -2.192510 6.469440 -0.000001 -177.257000 24.310700 -177.746000 -39.081100 -0.002282 -0.040193 -0.187062 0.369900 27.233000 -40.985400 0.000008 0.000006 8.191170 15.570500 -72.459900 -11.754300 -0.000006 -0.000006 -0.000716 -0.011287 -17.032300
